# xmcd
#
# Track frame offsets: 
#        150
#        22996
#        40835
#        57849
#        79284
#
# Disc length: 1261 seconds
#
# Revision: 0
# Processed by: cddbd v1.5.2PL0 Copyright (c) Steve Scherf et al.
# Submitted via: ExactAudioCopy v1.3
#
DISCID=3404eb05
DTITLE=Glen Mead - Man Alive
DYEAR=1900
DGENRE=
TTITLE0=Man Alive
TTITLE1=Slipping Away
TTITLE2=Shine
TTITLE3=My Island
TTITLE4=Somewhere I Want To Be
EXTD=
EXTT0=
EXTT1=
EXTT2=
EXTT3=
EXTT4=
PLAYORDER=
